<?xml version="1.0" standalone="no"?>
<!DOCTYPE svg PUBLIC "-//W3C//DTD SVG 20010904//EN"
 "http://www.w3.org/TR/2001/REC-SVG-20010904/DTD/svg10.dtd">
<svg version="1.0" xmlns="http://www.w3.org/2000/svg"
 width="1320.000000pt" height="1320.000000pt" viewBox="0 0 1320.000000 1320.000000"
 preserveAspectRatio="xMidYMid meet">
<metadata>
Created by potrace 1.11, written by Peter Selinger 2001-2013
</metadata>
<g transform="translate(0.000000,1320.000000) scale(0.100000,-0.100000)"
fill="#000000" stroke="none">
<path d="M758 11260 c-242 -53 -464 -203 -597 -405 -45 -70 -104 -188 -116
-235 0 -3 -10 -39 -20 -80 -19 -70 -20 -111 -20 -655 1 -531 3 -621 18 -665 2
-8 11 -35 18 -60 7 -25 22 -65 33 -90 10 -25 20 -47 21 -50 4 -16 44 -83 81
-135 111 -156 272 -280 449 -346 59 -21 82 -29 105 -33 14 -3 36 -8 50 -11 14
-3 51 -7 83 -10 32 -2 62 -7 68 -10 5 -4 9 -2 9 4 0 8 20 8 40 1 15 -6 78 -4
98 2 15 5 21 4 17 -2 -4 -7 2 -7 19 0 14 5 28 6 30 1 6 -9 36 -8 53 2 6 4 14
3 17 -2 6 -8 60 -6 76 4 5 3 11 1 14 -3 6 -10 36 -9 53 1 6 4 14 4 17 -1 6
-10 100 -7 117 4 7 4 10 3 6 -2 -3 -5 10 -9 28 -9 18 0 31 3 28 7 -2 5 7 4 21
-2 18 -6 26 -6 26 1 0 6 6 7 13 2 16 -10 76 -10 105 -1 15 5 21 4 17 -2 -4 -7
2 -7 19 0 14 5 28 6 30 1 6 -9 36 -8 53 2 6 4 14 3 17 -2 6 -8 60 -6 76 4 5 3
11 1 14 -3 6 -10 36 -9 53 1 6 4 14 4 17 -1 6 -10 100 -7 117 4 7 4 10 3 7 -2
-4 -5 9 -9 27 -9 18 0 31 3 28 7 -2 5 7 4 21 -2 18 -6 26 -6 26 1 0 6 6 7 13
2 16 -10 76 -10 105 -1 15 5 21 4 17 -2 -4 -7 2 -7 19 0 14 5 28 6 30 1 6 -9
36 -8 53 2 6 4 14 3 17 -2 6 -8 60 -6 76 4 5 3 11 1 14 -3 6 -10 36 -9 53 1 6
4 14 4 17 -1 6 -10 100 -7 117 4 7 4 10 3 7 -2 -4 -5 9 -9 27 -9 18 0 31 3 28
7 -2 5 7 4 21 -2 18 -6 26 -6 26 1 0 6 6 7 13 2 16 -10 76 -10 105 -1 15 5 21
4 17 -2 -4 -7 2 -7 19 0 14 5 28 6 30 1 6 -9 36 -8 53 2 6 4 14 3 17 -2 6 -8
60 -6 76 4 5 3 11 1 14 -3 6 -10 36 -9 53 1 6 4 14 4 17 -1 6 -10 100 -7 117
4 7 4 10 3 7 -2 -4 -5 9 -9 27 -9 18 0 31 3 28 7 -2 5 7 4 21 -2 18 -6 26 -6
26 1 0 6 6 7 13 2 16 -10 76 -10 105 -1 15 5 21 4 17 -2 -4 -7 2 -7 19 0 14 5
28 6 30 1 6 -9 36 -8 53 2 6 4 14 3 17 -2 6 -8 60 -6 76 4 5 3 11 1 14 -3 6
-10 36 -9 53 1 6 4 14 4 17 -1 6 -10 100 -7 117 4 7 4 10 3 6 -2 -3 -5 10 -9
28 -9 18 0 31 3 28 7 -2 5 7 4 21 -2 18 -6 26 -6 26 1 0 6 6 7 13 2 16 -10 76
-10 105 -1 15 5 21 4 17 -2 -4 -7 2 -7 19 0 14 5 28 6 30 1 6 -9 36 -8 53 2 6
4 14 3 17 -2 6 -8 60 -6 76 4 5 3 11 1 14 -3 6 -10 36 -9 53 1 6 4 14 4 17 -1
6 -10 100 -7 117 4 7 4 10 3 7 -2 -4 -5 9 -9 27 -9 18 0 31 3 28 7 -2 5 7 4
21 -2 18 -6 26 -6 26 1 0 6 6 7 13 2 16 -10 76 -10 105 -1 15 5 21 4 17 -2 -4
-7 2 -7 19 0 14 5 28 6 30 1 6 -9 36 -8 53 2 6 4 14 4 17 -1 6 -10 100 -7 117
4 7 4 10 3 6 -2 -3 -5 10 -9 28 -9 18 0 31 3 28 7 -2 5 7 4 21 -2 17 -6 26 -6
30 3 2 7 5 7 5 2 1 -10 102 -12 118 -2 4 2 17 1 28 -3 11 -4 30 -3 43 1 13 5
21 5 18 1 -3 -5 8 -6 25 -4 16 2 29 0 29 -4 0 -5 -14 -61 -31 -124 -17 -63
-33 -123 -35 -132 -5 -23 -8 -35 -35 -135 l-23 -81 -43 2 c-24 1 -46 -1 -49
-6 -3 -5 -10 -5 -16 -1 -14 8 -71 8 -85 0 -6 -4 -13 -3 -17 0 -9 10 -296 10
-296 0 0 -5 -6 -5 -12 0 -16 10 -78 10 -99 1 -9 -4 -19 -4 -23 -1 -9 10 -186
9 -186 0 0 -5 -5 -5 -12 -1 -16 10 -308 11 -308 1 0 -5 -6 -5 -12 0 -16 10
-78 10 -99 1 -9 -4 -19 -4 -23 -1 -9 10 -186 9 -186 0 0 -5 -5 -5 -12 -1 -16
10 -308 11 -308 1 0 -5 -6 -5 -12 0 -16 10 -78 10 -99 1 -9 -4 -19 -4 -23 -1
-9 10 -186 9 -186 0 0 -5 -5 -5 -12 -1 -16 10 -308 11 -308 1 0 -5 -6 -5 -12
0 -16 10 -78 10 -99 1 -9 -4 -19 -4 -23 -1 -9 10 -186 9 -186 0 0 -5 -5 -5
-12 -1 -16 10 -308 11 -308 1 0 -5 -6 -5 -12 0 -16 10 -78 10 -99 1 -9 -4 -19
-4 -23 -1 -9 10 -186 9 -186 0 0 -5 -5 -5 -12 -1 -16 10 -308 11 -308 1 0 -5
-6 -5 -12 0 -16 10 -78 10 -99 1 -9 -4 -19 -4 -23 -1 -9 10 -186 9 -186 0 0
-5 -5 -5 -12 -1 -17 11 -308 11 -308 0 0 -5 -6 -4 -12 1 -13 9 -28 9 -173 0
-353 -22 -655 -229 -806 -553 -22 -45 -49 -120 -62 -166 -22 -81 -22 -94 -22
-663 0 -319 4 -602 9 -629 4 -27 17 -74 27 -105 11 -31 19 -57 19 -59 -1 -4
39 -96 49 -112 6 -8 23 -37 39 -65 102 -173 326 -346 517 -400 113 -32 126
-34 210 -41 125 -9 155 -10 155 -2 0 4 10 4 23 -1 12 -5 31 -5 42 -1 11 4 24
5 29 2 14 -8 66 -8 66 0 0 4 10 4 23 -1 12 -5 31 -5 42 -1 11 4 34 4 52 -1 18
-4 33 -3 33 1 0 5 12 5 28 1 15 -4 38 -5 52 -1 14 4 34 4 45 0 11 -4 30 -4 42
1 13 5 23 5 23 1 0 -6 105 -7 120 -2 3 1 10 1 15 0 26 -5 75 -5 75 1 0 4 16 3
35 -1 20 -4 38 -4 41 1 3 5 10 6 16 3 15 -9 158 -11 158 -2 0 4 10 4 23 -1 12
-5 31 -5 42 -1 11 4 24 5 29 2 14 -8 66 -8 66 0 0 4 10 4 23 -1 12 -5 31 -5
42 -1 11 4 23 6 27 3 13 -7 144 -6 156 1 7 4 12 4 12 -1 0 -7 54 -9 70 -3 3 1
10 1 15 0 23 -5 135 -1 144 5 6 3 11 3 11 -2 0 -9 52 -9 66 0 6 3 16 2 23 -2
7 -5 28 -5 47 -1 19 4 34 5 34 1 0 -5 179 -6 205 -1 6 1 12 1 15 0 15 -5 70
-4 70 2 0 4 10 4 23 -1 12 -5 31 -5 42 -1 11 4 34 4 52 -1 18 -4 33 -3 33 1 0
5 12 5 28 1 15 -4 38 -5 52 -1 14 4 34 4 45 0 11 -4 30 -4 42 1 13 5 23 5 23
1 0 -6 105 -7 120 -2 3 1 10 1 15 0 26 -5 75 -5 75 1 0 4 16 3 35 -1 20 -4 38
-4 41 1 3 5 10 6 16 3 15 -9 158 -11 158 -2 0 4 10 4 23 -1 12 -5 31 -5 42 -1
11 4 24 5 29 2 14 -8 66 -8 66 0 0 4 10 4 23 -1 12 -5 31 -5 42 -1 11 4 23 6
27 3 13 -7 144 -6 156 1 7 4 12 4 12 -1 0 -7 54 -9 70 -3 3 1 10 1 15 0 28 -6
105 -4 105 2 0 4 10 4 23 -1 12 -5 32 -5 45 0 12 5 22 5 22 0 0 -4 14 -6 30
-3 29 4 30 3 26 -24 -3 -16 -10 -44 -15 -63 -6 -18 -10 -36 -9 -40 1 -3 -1
-13 -5 -21 -10 -27 -75 -262 -81 -295 -4 -26 -19 -32 -81 -31 -38 1 -65 -3
-65 -9 0 -7 -3 -7 -8 0 -8 12 -72 15 -72 3 0 -4 -10 -4 -22 1 -13 4 -32 6 -43
4 -11 -2 -24 -4 -30 -4 -88 6 -122 5 -132 -2 -8 -6 -13 -6 -13 0 0 4 -26 7
-57 6 -32 -2 -64 -3 -70 -3 -18 0 -60 0 -75 0 -7 0 -35 1 -63 3 -27 1 -56 -1
-62 -6 -8 -6 -13 -6 -13 0 0 5 -19 8 -42 6 -51 -4 -54 -4 -93 0 -16 1 -36 -2
-42 -7 -7 -4 -13 -5 -13 0 0 11 -101 11 -118 0 -7 -4 -12 -3 -12 1 0 5 -19 8
-42 6 -51 -4 -54 -4 -93 0 -16 1 -36 -2 -42 -7 -8 -5 -13 -5 -13 1 0 6 -12 8
-27 6 -30 -4 -29 -4 -88 0 -22 2 -46 -1 -52 -6 -7 -5 -13 -6 -13 -1 0 5 -16 9
-35 9 -19 0 -35 -4 -35 -8 0 -5 -5 -5 -12 -1 -19 12 -168 11 -168 -1 0 -7 -3
-7 -8 0 -8 12 -72 15 -72 3 0 -4 -10 -4 -22 1 -13 4 -32 6 -43 4 -11 -2 -24
-4 -30 -4 -88 6 -122 5 -132 -2 -8 -6 -13 -6 -13 0 0 4 -26 7 -57 6 -32 -2
-64 -3 -70 -3 -12 0 -36 0 -80 0 -10 0 -27 0 -38 0 -22 -1 -24 -1 -80 3 -22 2
-46 -1 -52 -6 -7 -5 -13 -6 -13 -1 0 5 -16 9 -35 9 -19 0 -35 -4 -35 -9 0 -5
-6 -5 -12 0 -15 11 -159 11 -176 0 -7 -4 -12 -3 -12 1 0 5 -19 8 -42 6 -51 -4
-54 -4 -93 0 -16 1 -36 -2 -42 -7 -7 -4 -13 -5 -13 0 0 11 -101 11 -118 0 -7
-4 -12 -3 -12 1 0 5 -19 8 -42 6 -51 -4 -54 -4 -93 0 -16 1 -36 -2 -42 -7 -8
-5 -13 -5 -13 0 0 5 -25 9 -55 9 -30 0 -55 -4 -55 -10 0 -7 -3 -7 -8 0 -8 12
-72 15 -72 3 0 -4 -10 -4 -22 1 -13 4 -32 6 -43 4 -11 -2 -24 -4 -30 -4 -5 0
-31 2 -57 3 -27 2 -48 1 -48 -2 0 -3 -21 -5 -47 -4 -91 1 -329 -67 -383 -109
-8 -7 -31 -21 -50 -31 -19 -11 -37 -22 -40 -25 -3 -3 -22 -18 -42 -34 -51 -37
-128 -114 -163 -162 -17 -22 -32 -42 -36 -45 -3 -3 -9 -12 -12 -20 -4 -8 -18
-33 -32 -55 -24 -38 -54 -99 -59 -120 -2 -5 -6 -17 -9 -25 -10 -24 -37 -122
-45 -160 -9 -43 -9 -1161 -1 -1210 12 -64 41 -165 51 -177 6 -7 8 -13 5 -13
-4 0 5 -22 18 -49 14 -27 25 -54 25 -60 0 -6 5 -11 10 -11 6 0 10 -5 10 -11 0
-11 50 -86 85 -128 48 -58 143 -143 205 -185 86 -58 250 -133 272 -125 2 0 17
-5 33 -11 17 -7 53 -15 80 -18 62 -9 11547 -9 11595 -1 19 3 42 9 50 12 8 4
26 8 40 11 64 11 247 96 301 140 15 11 41 31 57 44 69 52 165 162 207 237 16
28 34 57 41 65 7 8 13 17 13 20 0 3 4 16 9 30 5 14 11 30 12 35 1 6 6 18 12
28 5 10 12 28 14 40 9 38 12 52 14 52 1 0 4 9 6 20 3 11 7 31 11 45 3 14 7
279 9 590 2 459 0 577 -12 630 -8 36 -16 74 -18 85 -7 34 -23 78 -51 140 -10
22 -19 43 -19 47 -1 4 -7 13 -13 20 -7 6 -13 18 -13 25 0 7 -4 13 -10 13 -5 0
-10 5 -10 11 0 15 -78 115 -131 168 -56 55 -141 121 -199 152 -25 13 -47 27
-50 30 -3 3 -18 10 -35 16 -16 6 -39 15 -50 19 -11 4 -22 8 -25 9 -3 0 -21 6
-41 13 -20 7 -47 15 -60 17 -13 3 -36 7 -50 10 -14 3 -49 8 -77 10 -28 2 -56
6 -61 9 -5 4 -12 2 -16 -3 -4 -7 -15 -7 -30 -1 -15 6 -25 6 -25 0 0 -5 -12 -5
-28 0 -16 4 -36 4 -45 -1 -10 -6 -18 -5 -22 1 -4 7 -12 7 -25 0 -13 -7 -21 -7
-25 0 -4 6 -13 7 -23 1 -17 -8 -49 -7 -59 3 -3 3 -14 1 -24 -4 -12 -7 -20 -7
-24 0 -4 7 -12 7 -25 0 -11 -6 -21 -6 -25 -1 -3 6 -17 6 -35 1 -18 -5 -32 -5
-35 1 -4 5 -14 5 -25 -1 -13 -7 -21 -7 -25 0 -4 7 -12 7 -24 0 -10 -5 -21 -7
-23 -4 -11 10 -48 12 -53 3 -4 -5 -13 -5 -25 1 -13 7 -21 7 -25 0 -4 -7 -12
-7 -25 0 -10 6 -21 6 -24 1 -6 -8 -48 -7 -63 2 -5 3 -15 2 -23 -3 -7 -4 -24
-4 -37 1 -15 5 -23 5 -23 -2 0 -6 -5 -7 -12 -3 -14 9 -123 8 -138 -1 -5 -3
-10 -2 -10 3 0 5 -20 6 -44 2 -25 -4 -51 -3 -60 2 -8 5 -17 4 -21 -1 -3 -7
-15 -7 -30 -1 -15 6 -27 6 -30 0 -4 -6 -13 -7 -23 -1 -11 6 -24 6 -34 0 -10
-6 -19 -6 -23 0 -3 7 -15 7 -30 1 -15 -6 -27 -6 -30 0 -3 5 -15 6 -28 1 -13
-5 -30 -5 -39 0 -11 6 -19 5 -23 -1 -4 -6 -13 -7 -24 -1 -10 6 -23 6 -31 1 -8
-5 -19 -5 -25 0 -6 5 -17 5 -25 0 -7 -4 -24 -4 -37 1 -14 5 -23 5 -23 -1 0 -6
-9 -6 -23 -1 -13 5 -30 5 -37 1 -8 -5 -21 -5 -29 0 -9 4 -18 9 -21 11 -3 1
-15 -3 -27 -9 -14 -8 -24 -9 -28 -2 -4 7 -12 7 -25 0 -13 -7 -21 -7 -25 0 -4
6 -13 7 -23 1 -17 -8 -49 -7 -59 3 -3 3 -14 1 -24 -4 -12 -7 -20 -7 -24 0 -4
7 -12 7 -25 0 -11 -6 -21 -6 -25 -1 -3 6 -17 6 -35 1 -18 -5 -32 -5 -35 1 -4
5 -14 5 -25 -1 -13 -7 -21 -7 -25 0 -4 7 -12 7 -24 0 -10 -5 -21 -7 -23 -4
-11 10 -48 12 -53 3 -4 -5 -13 -5 -25 1 -13 7 -21 7 -25 0 -4 -7 -12 -7 -25 0
-10 6 -21 6 -24 1 -6 -9 -48 -7 -65 3 -5 4 -12 2 -16 -4 -4 -6 -12 -7 -24 -1
-10 6 -23 6 -31 1 -8 -5 -19 -5 -25 0 -6 5 -17 5 -25 0 -7 -4 -24 -4 -37 1
-14 5 -23 5 -23 -1 0 -6 -9 -6 -23 -1 -13 5 -30 5 -37 1 -8 -5 -22 -4 -32 1
-12 7 -18 6 -18 -1 0 -7 -6 -8 -18 -1 -10 5 -24 6 -32 1 -7 -4 -24 -4 -37 1
-15 5 -23 5 -23 -2 0 -6 -5 -7 -12 -3 -14 9 -123 8 -138 -1 -5 -3 -10 -2 -10
3 0 5 -20 6 -44 2 -25 -4 -51 -3 -60 2 -8 5 -17 4 -21 -1 -3 -7 -15 -7 -30 -1
-15 6 -27 6 -30 0 -4 -6 -13 -7 -23 -1 -11 6 -24 6 -34 0 -10 -6 -19 -6 -23 0
-3 7 -15 7 -30 1 -13 -5 -26 -6 -29 -2 -5 9 -70 7 -85 -2 -5 -4 -12 -2 -16 4
-4 7 -12 7 -25 0 -13 -7 -21 -7 -25 0 -4 6 -13 7 -23 1 -17 -8 -49 -7 -59 3
-3 3 -14 1 -24 -4 -12 -7 -20 -7 -24 0 -4 7 -12 7 -25 0 -11 -6 -21 -6 -25 -1
-3 6 -17 6 -35 1 -18 -5 -32 -5 -35 1 -4 5 -14 5 -25 -1 -13 -7 -21 -7 -25 0
-4 7 -12 7 -24 0 -10 -5 -21 -7 -23 -4 -11 10 -48 12 -53 3 -4 -5 -13 -5 -25
1 -13 7 -21 7 -25 0 -4 -7 -12 -7 -25 0 -12 6 -21 7 -25 0 -3 -5 -15 -6 -28
-1 -13 5 -30 5 -39 0 -11 -6 -19 -5 -23 1 -4 7 -12 7 -25 0 -13 -7 -21 -7 -25
0 -4 6 -13 7 -23 1 -17 -8 -49 -7 -59 3 -3 3 -14 1 -24 -4 -12 -7 -20 -7 -24
0 -4 7 -12 7 -25 0 -11 -6 -21 -6 -25 -1 -3 6 -17 6 -35 1 -18 -5 -32 -5 -35
1 -4 5 -14 5 -25 -1 -13 -7 -21 -7 -25 0 -4 7 -12 7 -24 0 -10 -5 -21 -7 -23
-4 -11 10 -48 12 -53 3 -4 -5 -13 -5 -25 1 -13 7 -21 7 -25 0 -4 -7 -12 -7
-24 0 -10 5 -21 6 -25 3 -8 -8 -69 -8 -82 0 -6 3 -16 2 -24 -3 -8 -5 -21 -5
-31 0 -9 5 -19 6 -23 3 -5 -6 -37 -7 -91 -4 -10 1 -14 9 -12 24 4 22 25 99 35
127 3 8 6 22 7 30 1 8 4 22 7 30 4 8 14 44 22 80 9 36 18 70 19 75 2 6 9 34
17 63 13 48 23 58 53 53 35 -6 88 -6 103 -1 10 4 33 4 51 -1 18 -4 33 -4 33 0
0 3 24 5 52 3 29 -1 60 -3 68 -3 8 0 56 1 107 2 50 1 96 -2 102 -6 6 -3 11 -3
11 2 0 9 61 9 76 1 5 -3 18 -2 29 2 11 4 32 4 47 -1 16 -4 28 -5 28 -1 0 8 62
8 76 0 5 -3 18 -2 29 2 11 4 32 4 48 -1 15 -4 27 -5 27 -1 0 7 43 6 121 -1 20
-2 45 0 55 3 10 4 33 4 51 -1 18 -4 33 -4 33 0 0 3 24 5 52 3 61 -3 51 -3 153
-2 44 1 85 1 90 0 6 -1 15 -1 20 0 13 3 107 3 120 0 6 -1 12 -2 15 0 15 5 80
4 80 -2 0 -4 13 -3 29 2 16 4 32 6 34 3 3 -2 26 -4 51 -3 61 1 59 1 154 -1 46
-1 85 1 88 4 3 2 21 1 40 -3 18 -4 34 -5 34 -1 0 3 24 5 52 3 29 -1 60 -3 68
-3 8 0 56 1 107 2 50 1 96 -2 102 -6 6 -3 11 -3 11 2 0 9 61 9 76 1 5 -3 18
-2 29 2 11 4 32 4 48 -1 15 -4 27 -5 27 -1 0 8 62 8 76 0 5 -3 18 -2 29 2 11
4 32 4 48 -1 15 -4 27 -5 27 -1 0 7 43 6 121 -1 20 -2 45 0 55 3 10 4 33 4 51
-1 18 -4 33 -4 33 0 0 3 24 5 52 3 61 -3 51 -3 153 -2 44 1 85 1 90 0 6 -1 15
-1 20 0 6 1 33 2 60 2 28 0 55 -1 60 -2 6 -1 12 -2 15 0 15 5 80 4 80 -2 0 -4
13 -3 29 2 16 4 32 6 34 3 3 -2 26 -4 51 -3 61 1 59 1 154 -1 46 -1 85 1 88 4
3 2 21 1 40 -3 18 -4 34 -5 34 -1 0 3 24 5 52 3 29 -1 60 -3 68 -3 8 0 56 1
107 2 50 1 96 -2 102 -6 6 -3 11 -3 11 2 0 9 61 9 76 1 5 -3 18 -2 29 2 11 4
32 4 48 -1 15 -4 27 -5 27 -1 0 6 65 7 80 2 3 -2 9 -2 13 -1 5 1 39 4 75 6 37
3 94 12 127 21 33 8 67 17 75 19 24 6 96 32 116 43 176 95 257 161 358 292 50
65 128 204 119 214 -3 3 -1 6 6 6 6 0 11 6 10 13 -1 6 3 24 9 40 13 30 15 39
37 142 12 58 14 170 12 635 -3 557 -3 566 -26 645 -13 44 -23 86 -24 93 0 6
-4 12 -9 12 -4 0 -8 8 -8 18 0 9 -7 26 -15 36 -8 11 -15 28 -15 38 0 10 -4 18
-9 18 -5 0 -13 10 -17 22 -6 20 -36 66 -87 133 -64 85 -187 184 -310 249 -48
26 -88 46 -89 46 -2 -1 -10 1 -18 3 -133 41 -223 56 -321 55 -37 0 -70 2 -75
4 -5 3 -18 4 -29 2 -11 -2 -38 -4 -60 -4 -22 0 -49 0 -60 0 -11 0 -29 0 -40 0
-11 1 -26 1 -32 1 -7 -1 -19 -1 -25 -2 -7 0 -37 1 -66 3 -28 2 -52 1 -52 -2 0
-6 -105 -4 -117 3 -4 2 -17 3 -28 1 -11 -2 -38 -4 -60 -4 -22 0 -49 0 -60 0
-11 0 -29 0 -40 0 -11 1 -26 1 -32 1 -24 -2 -38 -2 -98 -2 -33 0 -73 0 -90 0
-16 0 -48 1 -70 1 -35 1 -82 1 -150 0 -11 0 -29 0 -40 0 -11 1 -26 1 -32 1 -7
-1 -19 -1 -25 -2 -7 0 -37 1 -66 3 -28 2 -52 1 -52 -2 0 -6 -105 -4 -117 3 -4
2 -17 3 -28 1 -11 -2 -38 -4 -60 -4 -22 0 -49 0 -60 0 -11 0 -29 0 -40 0 -11
1 -26 1 -32 1 -24 -2 -38 -2 -98 -2 -33 0 -73 0 -90 0 -16 0 -48 1 -70 1 -35
1 -82 1 -150 0 -11 0 -29 0 -40 0 -11 1 -26 1 -32 1 -7 -1 -19 -1 -25 -2 -7 0
-37 1 -66 3 -28 2 -52 1 -52 -2 0 -6 -105 -4 -117 3 -4 2 -17 3 -28 1 -11 -2
-38 -4 -60 -4 -22 0 -49 0 -60 0 -11 0 -29 0 -40 0 -11 1 -26 1 -32 1 -24 -2
-38 -2 -98 -2 -33 0 -73 0 -90 0 -16 0 -48 1 -70 1 -35 1 -82 1 -150 0 -11 0
-29 0 -40 0 -11 1 -26 1 -32 1 -7 -1 -19 -1 -25 -2 -7 0 -37 1 -66 3 -28 2
-52 1 -52 -2 0 -4 -107 -4 -120 0 -15 5 -48 4 -72 -2 -15 -3 -30 -2 -34 3 -3
5 -9 7 -14 4 -10 -6 -86 -7 -122 -2 -16 2 -28 1 -28 -4 0 -5 -6 -6 -14 -3 -21
8 -106 10 -106 2 0 -4 -12 -4 -27 -1 -16 3 -36 5 -46 5 -20 -1 -18 23 6 98 6
19 12 42 13 50 3 17 3 20 39 150 15 52 29 106 31 120 3 13 10 30 16 37 6 7 7
13 2 14 -5 1 2 4 16 8 14 4 36 5 50 1 14 -4 37 -3 52 1 16 4 30 4 33 -1 2 -4
22 -4 44 0 22 4 45 4 52 0 6 -4 24 -4 39 0 15 4 33 4 41 0 7 -5 20 -5 28 -1 9
4 27 5 41 1 14 -4 35 -3 46 1 12 4 24 5 27 2 8 -7 67 -10 67 -4 0 8 109 5 117
-3 3 -3 14 -1 24 5 11 5 19 6 19 1 0 -5 18 -6 40 -2 22 4 40 4 40 -1 0 -5 10
-5 23 0 14 5 30 5 40 0 9 -6 17 -6 17 -2 0 9 108 8 117 -1 3 -3 13 -1 23 4 10
5 20 6 24 3 6 -7 45 -6 139 0 21 1 43 -1 49 -4 6 -4 23 -3 38 1 15 4 33 4 41
-1 8 -4 21 -4 28 1 8 4 25 4 40 0 14 -4 35 -4 46 0 11 4 27 4 36 -1 8 -4 21
-4 28 1 8 4 25 4 40 0 14 -4 35 -4 46 0 11 4 24 5 29 2 12 -7 76 -9 76 -2 0 7
110 4 117 -4 3 -3 13 -1 23 4 10 5 20 6 24 3 7 -7 82 -6 121 0 11 2 31 1 45
-3 14 -4 37 -3 52 1 16 4 30 4 33 -1 2 -4 22 -4 44 0 22 4 45 4 52 0 6 -4 24
-4 39 0 15 4 33 4 41 0 7 -5 20 -5 28 -1 9 4 27 5 41 1 14 -4 35 -3 46 1 12 4
24 5 27 2 8 -7 67 -10 67 -4 0 8 109 5 117 -3 3 -3 14 -1 24 5 11 5 19 6 19 1
0 -5 18 -6 40 -2 22 4 40 4 40 -1 0 -5 10 -5 23 0 14 5 30 5 40 0 9 -6 17 -6
17 -2 0 9 108 8 117 -1 3 -3 13 -1 23 4 10 5 20 6 24 3 6 -7 45 -6 139 0 21 1
43 -1 49 -4 6 -4 23 -3 38 1 15 4 33 4 41 -1 8 -4 21 -4 28 1 8 4 25 4 40 0
14 -4 35 -4 46 0 11 4 27 4 36 -1 8 -4 21 -4 28 1 8 4 25 4 40 0 14 -4 35 -4
46 0 11 4 24 5 29 2 12 -7 76 -9 76 -2 0 6 96 3 128 -4 12 -3 22 -2 22 2 0 4
38 7 84 6 84 -1 263 29 280 47 6 5 16 9 23 9 39 0 230 111 302 175 148 132
257 306 297 476 31 131 33 163 33 689 0 520 -4 600 -33 695 -2 6 -7 25 -11 43
-4 17 -12 32 -17 32 -5 0 -7 4 -4 8 6 10 -63 155 -76 160 -4 2 -8 8 -8 14 0
14 -80 115 -131 167 -57 57 -147 125 -193 147 -20 10 -36 21 -36 26 0 4 -8 8
-18 8 -10 0 -23 5 -30 12 -7 7 -12 8 -12 3 0 -6 -4 -4 -9 3 -4 7 -14 14 -22
15 -8 2 -19 6 -25 9 -6 4 -21 9 -35 12 -13 3 -62 15 -109 26 -84 19 -143 19
-5835 19 -5585 0 -5752 -1 -5837 -19z"/>
</g>
</svg>
